<?xml version="1.0" encoding="UTF-8" standalone="no"?>
<!DOCTYPE svg PUBLIC "-//W3C//DTD SVG 1.1//EN" "http://www.w3.org/Graphics/SVG/1.1/DTD/svg11.dtd">
<svg width="100%" height="100%" viewBox="0 0 175 116" version="1.1" xmlns="http://www.w3.org/2000/svg" xmlns:xlink="http://www.w3.org/1999/xlink" xml:space="preserve" xmlns:serif="http://www.serif.com/" style="fill-rule:evenodd;clip-rule:evenodd;stroke-linejoin:round;stroke-miterlimit:2;">
    <g id="Folder" transform="matrix(3.97617,1.4703e-31,4.90101e-32,3.97617,-2215.92,-786.486)">
        <path d="M594,197.8L564.6,197.8L557.3,208.8L557.3,225.8C557.3,226.4 557.7,226.8 558.3,226.8L600.3,226.8C600.9,226.8 601.3,226.4 601.3,225.8L601.3,208.8L594,197.8ZM599.2,224.8L559.2,224.8L559.2,210.8L572.4,210.8C573.1,214.2 575.5,216.8 579.2,216.8C582.9,216.8 585.3,214.2 586,210.8L599.2,210.8L599.2,224.8ZM584.2,208.8C584.2,212.1 582.5,214.8 579.2,214.8C575.9,214.8 574.2,212.1 574.2,208.8L559.2,208.8L565.2,199.8L593.2,199.8L599.2,208.8L584.2,208.8Z" style="fill:rgb(206,232,24);fill-rule:nonzero;"/>
    </g>
</svg>
