<?xml version="1.0" encoding="UTF-8" standalone="no"?>
<!DOCTYPE svg PUBLIC "-//W3C//DTD SVG 1.1//EN" "http://www.w3.org/Graphics/SVG/1.1/DTD/svg11.dtd">
<svg width="100%" height="100%" viewBox="0 0 40 32" version="1.1" xmlns="http://www.w3.org/2000/svg" xmlns:xlink="http://www.w3.org/1999/xlink" xml:space="preserve" xmlns:serif="http://www.serif.com/" style="fill-rule:evenodd;clip-rule:evenodd;stroke-linejoin:round;stroke-miterlimit:2;">
    <g>
        <g transform="matrix(1.2,0,0,0.998684,-7.17787,-1.63158)">
            <rect x="12.648" y="1.634" width="26.667" height="5.007" style="fill:rgb(230,230,230);"/>
        </g>
        <g transform="matrix(0.866438,0,0,0.866438,-3.19635,-2.23744)">
            <circle cx="6.574" cy="5.468" r="2.885" style="fill:rgb(230,230,230);"/>
        </g>
    </g>
    <g transform="matrix(1,0,0,1,0,-6.5)">
        <g transform="matrix(1.2,0,0,0.998684,-7.17787,13.8684)">
            <rect x="12.648" y="1.634" width="26.667" height="5.007" style="fill:rgb(230,230,230);"/>
        </g>
        <g transform="matrix(0.866438,0,0,0.866438,-3.19635,13.2626)">
            <circle cx="6.574" cy="5.468" r="2.885" style="fill:rgb(230,230,230);"/>
        </g>
    </g>
    <g transform="matrix(1,0,0,1,0,-7.0448)">
        <g transform="matrix(1.2,0,0,0.998684,-7.17787,23.4132)">
            <rect x="12.648" y="1.634" width="26.667" height="5.007" style="fill:rgb(230,230,230);"/>
        </g>
        <g transform="matrix(0.866438,0,0,0.866438,-3.19635,22.8074)">
            <circle cx="6.574" cy="5.468" r="2.885" style="fill:rgb(230,230,230);"/>
        </g>
    </g>
    <g transform="matrix(1,0,0,1,0,-7.16206)">
        <g transform="matrix(1.2,0,0,0.998684,-7.17787,32.5305)">
            <rect x="12.648" y="1.634" width="26.667" height="5.007" style="fill:rgb(230,230,230);"/>
        </g>
        <g transform="matrix(0.866438,0,0,0.866438,-3.19635,31.9246)">
            <circle cx="6.574" cy="5.468" r="2.885" style="fill:rgb(230,230,230);"/>
        </g>
    </g>
</svg>
