<?xml version="1.0" encoding="UTF-8" standalone="no"?>
<!DOCTYPE svg PUBLIC "-//W3C//DTD SVG 1.1//EN" "http://www.w3.org/Graphics/SVG/1.1/DTD/svg11.dtd">
<svg width="100%" height="100%" viewBox="0 0 152 123" version="1.1" xmlns="http://www.w3.org/2000/svg" xmlns:xlink="http://www.w3.org/1999/xlink" xml:space="preserve" xmlns:serif="http://www.serif.com/" style="fill-rule:evenodd;clip-rule:evenodd;stroke-linecap:square;stroke-miterlimit:1.5;">
    <g transform="matrix(1,0,0,1,-52.7525,3.75578)">
        <g transform="matrix(0.828772,0,0,1.265,93.0345,-29)">
            <rect x="14.756" y="22.925" width="118.841" height="19.763" style="fill:none;stroke:white;stroke-width:3.9px;"/>
        </g>
        <g transform="matrix(0.839602,0,0,0.939356,-82.6457,-13.3663)">
            <rect x="161.265" y="14.229" width="29.776" height="26.614" style="fill:none;stroke:white;stroke-width:4.68px;"/>
        </g>
        <g transform="matrix(0.828772,0,0,1.265,93.0345,16)">
            <rect x="14.756" y="22.925" width="118.841" height="19.763" style="fill:none;stroke:white;stroke-width:3.9px;"/>
        </g>
        <g transform="matrix(0.839602,0,0,0.939356,-82.6457,31.6337)">
            <rect x="161.265" y="14.229" width="29.776" height="26.614" style="fill:none;stroke:white;stroke-width:4.68px;"/>
        </g>
        <g transform="matrix(0.828772,0,0,1.265,93.0345,61)">
            <rect x="14.756" y="22.925" width="118.841" height="19.763" style="fill:none;stroke:white;stroke-width:3.9px;"/>
        </g>
        <g transform="matrix(0.839602,0,0,0.939356,-82.6457,76.6337)">
            <rect x="161.265" y="14.229" width="29.776" height="26.614" style="fill:none;stroke:white;stroke-width:4.68px;"/>
        </g>
    </g>
</svg>
