<?xml version="1.0" encoding="UTF-8" standalone="no"?>
<!DOCTYPE svg PUBLIC "-//W3C//DTD SVG 1.1//EN" "http://www.w3.org/Graphics/SVG/1.1/DTD/svg11.dtd">
<svg width="100%" height="100%" viewBox="0 0 40 40" version="1.1" xmlns="http://www.w3.org/2000/svg" xmlns:xlink="http://www.w3.org/1999/xlink" xml:space="preserve" xmlns:serif="http://www.serif.com/" style="fill-rule:evenodd;clip-rule:evenodd;stroke-linecap:round;stroke-linejoin:round;stroke-miterlimit:1.5;">
    <g transform="matrix(1,0,0,1,-3.27009,0.573123)">
        <rect x="5.27" y="4.427" width="11.014" height="11.014" style="fill:none;stroke:rgb(49,162,135);stroke-width:4.17px;"/>
    </g>
    <g transform="matrix(1.33706,0,0,1,-5.10872,3)">
        <path d="M17.971,8.169C17.971,8.169 20.711,-0.58 24.98,8.327C29.249,17.233 32.095,8.485 32.042,8.221" style="fill:none;stroke:rgb(49,162,135);stroke-width:3.53px;"/>
    </g>
    <g transform="matrix(1,0,0,1,-3.27009,19.448)">
        <rect x="5.27" y="4.427" width="11.014" height="11.014" style="fill:none;stroke:rgb(49,162,135);stroke-width:4.17px;"/>
    </g>
    <g transform="matrix(1.33706,0,0,1,-5.10872,21.8748)">
        <path d="M17.971,8.169C17.971,8.169 20.711,-0.58 24.98,8.327C29.249,17.233 32.095,8.485 32.042,8.221" style="fill:none;stroke:rgb(49,162,135);stroke-width:3.53px;"/>
    </g>
</svg>
