<?xml version="1.0" encoding="UTF-8" standalone="no"?>
<!DOCTYPE svg PUBLIC "-//W3C//DTD SVG 1.1//EN" "http://www.w3.org/Graphics/SVG/1.1/DTD/svg11.dtd">
<svg width="100%" height="100%" viewBox="0 0 100 100" version="1.1" xmlns="http://www.w3.org/2000/svg" xmlns:xlink="http://www.w3.org/1999/xlink" xml:space="preserve" xmlns:serif="http://www.serif.com/" style="fill-rule:evenodd;clip-rule:evenodd;stroke-linecap:round;stroke-linejoin:round;stroke-miterlimit:1.5;">
    <g>
        <g transform="matrix(0.901304,0,0,0.901304,6.93025,9.6893)">
            <path d="M7.445,0.741L7.445,98.173L70.218,98.173" style="fill:none;stroke:white;stroke-width:5.55px;"/>
        </g>
        <g transform="matrix(0.613063,0,0,0.717647,9.56523,9.71956)">
            <path d="M7.445,0.741L70.09,0.741" style="fill:none;stroke:white;stroke-width:7.49px;"/>
        </g>
        <g transform="matrix(1,0,0,0.905911,0,9.2337)">
            <path d="M70.097,98.138L70.097,34.569" style="fill:none;stroke:white;stroke-width:5.24px;"/>
        </g>
        <g transform="matrix(1.60232,0,0,1.60232,-43.0705,-21.9342)">
            <circle cx="70.668" cy="26.222" r="11.746" style="fill:none;stroke:white;stroke-width:3.12px;"/>
        </g>
        <g transform="matrix(-3.22223e-16,1,-1.7541,-1.83697e-16,118.429,-49.8142)">
            <path d="M70.166,23.619L70.166,31.316" style="fill:none;stroke:white;stroke-width:3.5px;"/>
        </g>
        <g transform="matrix(-1,-2.6099e-16,7.62895e-17,-1.7541,140.415,68.5322)">
            <path d="M70.166,23.619L70.166,31.316" style="fill:none;stroke:white;stroke-width:3.5px;"/>
        </g>
    </g>
</svg>
