<?xml version="1.0" encoding="UTF-8" standalone="no"?>
<!DOCTYPE svg PUBLIC "-//W3C//DTD SVG 1.1//EN" "http://www.w3.org/Graphics/SVG/1.1/DTD/svg11.dtd">
<svg width="100%" height="100%" viewBox="0 0 368 492" version="1.1" xmlns="http://www.w3.org/2000/svg" xmlns:xlink="http://www.w3.org/1999/xlink" xml:space="preserve" xmlns:serif="http://www.serif.com/" style="fill-rule:evenodd;clip-rule:evenodd;stroke-linecap:round;stroke-linejoin:round;stroke-miterlimit:1.5;">
    <g id="Clipboard" transform="matrix(1,0,0,1,2.84217e-14,-8.71088)">
        <g transform="matrix(1.23326,0,0,1.21416,-121.251,-2.6052)">
            <path d="M153.456,51.871L116.156,51.871C109.891,51.871 104.804,57.037 104.804,63.401L104.804,328.605C104.804,334.969 109.891,340.136 116.156,340.136L276.184,340.136M331.845,290.542L331.845,63.401C331.845,57.037 326.759,51.871 320.493,51.871L283.194,51.871" style="fill:none;stroke:rgb(82,127,162);stroke-width:13.07px;"/>
        </g>
        <g transform="matrix(1,0,0,1,8,0)">
            <path d="M220,104.085L60,104.085L60,34.085L110.38,34.085C112.673,19.708 125.07,8.711 140,8.711C154.93,8.711 167.327,19.708 169.62,34.085L220,34.085L220,104.085ZM204,88.085L204,50.085L169.62,50.085C161.756,50.085 155.058,44.371 153.82,36.605C152.748,29.884 146.98,24.711 140,24.711C133.02,24.711 127.252,29.884 126.18,36.605C124.942,44.371 118.244,50.085 110.38,50.085C110.38,50.085 76,50.085 76,50.085C76,50.085 76,88.085 76,88.085L204,88.085Z" style="fill:rgb(82,127,162);"/>
        </g>
        <g id="Check-1" serif:id="Check 1">
            <g transform="matrix(0.977394,0,0,0.998642,3.23762,-32.2909)">
                <path d="M84.677,156.589L84.677,206.657L33.52,206.657L33.52,156.589L84.677,156.589ZM74.445,166.602L43.751,166.602L43.751,196.643L74.445,196.643L74.445,166.602Z" style="fill:rgb(82,127,162);"/>
            </g>
            <g transform="matrix(1,0,0,1,0,3)">
                <path d="M106.089,135.738L250,135.738" style="fill:none;stroke:rgb(82,127,162);stroke-width:10px;"/>
            </g>
            <g transform="matrix(1,0,0,1,0,-2)">
                <path d="M106.089,161.551L217.928,161.551" style="fill:none;stroke:rgb(82,127,162);stroke-width:10px;"/>
            </g>
        </g>
        <g id="Check-2" serif:id="Check 2" transform="matrix(1,0,0,1,0,70)">
            <g transform="matrix(0.977394,0,0,0.998642,3.23762,-32.2909)">
                <path d="M84.677,156.589L84.677,206.657L33.52,206.657L33.52,156.589L84.677,156.589ZM74.445,166.602L43.751,166.602L43.751,196.643L74.445,196.643L74.445,166.602Z" style="fill:rgb(82,127,162);"/>
            </g>
            <g transform="matrix(1,0,0,1,0,3)">
                <path d="M106.089,135.738L250,135.738" style="fill:none;stroke:rgb(82,127,162);stroke-width:10px;"/>
            </g>
            <g transform="matrix(1,0,0,1,0,-2)">
                <path d="M106.089,161.551L217.928,161.551" style="fill:none;stroke:rgb(82,127,162);stroke-width:10px;"/>
            </g>
        </g>
        <g id="Check-3" serif:id="Check 3" transform="matrix(1,0,0,1,0,140)">
            <g transform="matrix(0.977394,0,0,0.998642,3.23762,-32.2909)">
                <path d="M84.677,156.589L84.677,206.657L33.52,206.657L33.52,156.589L84.677,156.589ZM74.445,166.602L43.751,166.602L43.751,196.643L74.445,196.643L74.445,166.602Z" style="fill:rgb(82,127,162);"/>
            </g>
            <g transform="matrix(1,0,0,1,0,3)">
                <path d="M106.089,135.738L250,135.738" style="fill:none;stroke:rgb(82,127,162);stroke-width:10px;"/>
            </g>
            <g transform="matrix(1,0,0,1,0,-2)">
                <path d="M106.089,161.551L217.928,161.551" style="fill:none;stroke:rgb(82,127,162);stroke-width:10px;"/>
            </g>
        </g>
        <g id="Check-4" serif:id="Check 4" transform="matrix(1,0,0,1,0,210)">
            <g transform="matrix(0.977394,0,0,0.998642,3.23762,-32.2909)">
                <path d="M84.677,156.589L84.677,206.657L33.52,206.657L33.52,156.589L84.677,156.589ZM74.445,166.602L43.751,166.602L43.751,196.643L74.445,196.643L74.445,166.602Z" style="fill:rgb(82,127,162);"/>
            </g>
            <g transform="matrix(1,0,0,1,0,3)">
                <path d="M106.089,135.738L250,135.738" style="fill:none;stroke:rgb(82,127,162);stroke-width:10px;"/>
            </g>
            <g transform="matrix(1,0,0,1,0,-2)">
                <path d="M106.089,161.551L217.928,161.551" style="fill:none;stroke:rgb(82,127,162);stroke-width:10px;"/>
            </g>
        </g>
    </g>
    <g id="Confirm" transform="matrix(1,0,0,1,2.84217e-14,-8.71088)">
        <path d="M288,350.16C289.629,350.054 291.272,350 292.928,350C334.321,350 367.928,383.606 367.928,425C367.928,466.394 334.321,500 292.928,500C251.534,500 217.928,466.394 217.928,425C217.928,419.996 218.419,415.105 219.356,410.374C225.857,377.537 253.824,352.381 288,350.16ZM289.038,366.126C262.159,367.873 240.164,387.657 235.051,413.482C234.313,417.208 233.928,421.059 233.928,425C233.928,457.563 260.365,484 292.928,484C325.491,484 351.928,457.563 351.928,425C351.928,392.437 325.491,366 292.928,366C291.621,366 290.324,366.042 289.038,366.126Z" style="fill:rgb(82,127,162);"/>
        <g transform="matrix(1,0,0,1,-13.1747,0.679259)">
            <path d="M291.96,436.385L333.016,395.329L341.501,403.815L292.004,453.312L291.96,453.269L291.917,453.312L270.704,432.099L279.189,423.614L291.96,436.385Z" style="fill:rgb(82,127,162);"/>
        </g>
    </g>
</svg>
