<?xml version="1.0" encoding="UTF-8" standalone="no"?>
<!DOCTYPE svg PUBLIC "-//W3C//DTD SVG 1.1//EN" "http://www.w3.org/Graphics/SVG/1.1/DTD/svg11.dtd">
<svg width="100%" height="100%" viewBox="0 0 1136 1008" version="1.1" xmlns="http://www.w3.org/2000/svg" xmlns:xlink="http://www.w3.org/1999/xlink" xml:space="preserve" xmlns:serif="http://www.serif.com/" style="fill-rule:evenodd;clip-rule:evenodd;stroke-linecap:round;stroke-linejoin:round;stroke-miterlimit:1.5;">
    <g transform="matrix(1,0,0,1,12,12)">
        <g id="Frontend">
            <g transform="matrix(1.46292,0,0,1.37843,-191.422,-71.1371)">
                <path d="M585.13,315.336L585.13,77.608C585.13,63.258 574.152,51.607 560.631,51.607L155.348,51.607C141.826,51.607 130.849,63.258 130.849,77.608L130.849,397.044C130.849,411.395 141.826,423.045 155.348,423.045L434.728,423.045" style="fill:none;stroke:rgb(82,127,162);stroke-width:16.89px;"/>
            </g>
            <g transform="matrix(0.95259,0,0,1,12.3133,-2.84217e-14)">
                <path d="M-0,119.999L664.578,119.999" style="fill:none;stroke:rgb(82,127,162);stroke-width:24.58px;"/>
            </g>
            <g transform="matrix(0.82837,0,0,0.82837,4.20835,1.56559)">
                <circle cx="79.491" cy="78.977" r="24.144" style="fill:rgb(82,127,162);"/>
            </g>
            <g transform="matrix(0.82837,0,0,0.82837,74.2083,1.56559)">
                <circle cx="79.491" cy="78.977" r="24.144" style="fill:rgb(82,127,162);"/>
            </g>
            <g transform="matrix(0.82837,0,0,0.82837,144.208,1.56559)">
                <circle cx="79.491" cy="78.977" r="24.144" style="fill:rgb(82,127,162);"/>
            </g>
            <g transform="matrix(1,0,0,1,-2.87802,33.4027)">
                <path d="M230.056,200.876L160.278,270.654L228.405,338.781" style="fill:none;stroke:rgb(82,127,162);stroke-width:24px;"/>
            </g>
            <g transform="matrix(-1,-1.22465e-16,1.22465e-16,-1,657.456,573.06)">
                <path d="M230.056,200.876L160.278,270.654L228.405,338.781" style="fill:none;stroke:rgb(82,127,162);stroke-width:24px;"/>
            </g>
            <g transform="matrix(1,0,0,1,34.1859,2.72187)">
                <path d="M342.618,211.856L253.588,389.162" style="fill:none;stroke:rgb(82,127,162);stroke-width:24px;"/>
            </g>
        </g>
        <g id="Backend" transform="matrix(1,0,0,1,444.552,363.531)">
            <g transform="matrix(1.46292,0,0,1.37843,-191.422,-71.1371)">
                <path d="M130.849,159.316L130.849,397.044C130.849,411.395 141.826,423.045 155.348,423.045L560.631,423.045C574.152,423.045 585.13,411.395 585.13,397.044L585.13,77.608C585.13,63.258 574.152,51.607 560.631,51.607L281.251,51.607" style="fill:none;stroke:rgb(82,127,162);stroke-width:19.91px;"/>
            </g>
            <g transform="matrix(1.46292,0,0,1.37843,-191.422,-71.1371)">
                <path d="M281.251,51.607L155.348,51.607C141.826,51.607 130.849,63.258 130.849,77.608L130.849,159.316" style="fill:none;stroke:rgb(82,127,162);stroke-width:19.91px;"/>
            </g>
            <g transform="matrix(1.23272,0,0,1.1092,-109.01,-7.24314)">
                <path d="M585.13,77.608L585.13,397.044C585.13,411.395 574.647,423.045 561.734,423.045L154.244,423.045C141.332,423.045 130.849,411.395 130.849,397.044L130.849,77.608C130.849,63.258 141.332,51.607 154.244,51.607L561.734,51.607C574.647,51.607 585.13,63.258 585.13,77.608ZM562.171,77.608C562.171,77.34 561.975,77.123 561.734,77.123L154.244,77.123C154.003,77.123 153.808,77.34 153.808,77.608L153.808,397.044C153.808,397.312 154.003,397.53 154.244,397.53L561.734,397.53C561.975,397.53 562.171,397.312 562.171,397.044L562.171,77.608Z" style="fill:rgb(82,127,162);"/>
            </g>
            <g transform="matrix(0.760054,0,0,0.760128,-48.76,9.15022)">
                <path d="M518.356,149.681C507.042,148.581 495.648,148.581 484.334,149.681L478.73,176.96C467.886,178.62 457.257,181.467 447.036,185.453L428.544,164.63C418.196,169.335 408.328,175.032 399.079,181.641L407.866,208.067C399.305,214.926 391.524,222.707 384.665,231.269L358.238,222.482C351.629,231.731 345.932,241.598 341.227,251.946L362.05,270.439C358.065,280.66 355.217,291.289 353.558,302.133L326.278,307.736C325.179,319.05 325.179,330.445 326.278,341.759L353.558,347.362C355.217,358.206 358.065,368.835 362.05,379.056L341.227,397.549C345.932,407.897 351.629,417.764 358.238,427.013L384.665,418.226C391.524,426.788 399.305,434.569 407.866,441.428L399.079,467.854C408.328,474.463 418.196,480.16 428.544,484.865L447.036,464.042C457.257,468.028 467.886,470.875 478.73,472.535L484.334,499.814C495.648,500.914 507.042,500.914 518.356,499.814L523.96,472.535C534.804,470.875 545.433,468.028 555.654,464.042L574.146,484.865C584.494,480.16 594.362,474.463 603.611,467.854L594.824,441.428C603.385,434.569 611.166,426.788 618.025,418.226L644.452,427.013C651.061,417.764 656.758,407.897 661.463,397.549L640.64,379.056C644.625,368.835 647.473,358.206 649.132,347.362L676.412,341.759C677.511,330.445 677.511,319.05 676.412,307.736L649.132,302.133C647.473,291.289 644.625,280.66 640.64,270.439L661.463,251.946C656.758,241.598 651.061,231.731 644.452,222.482L618.025,231.269C611.166,222.707 603.385,214.926 594.824,208.067L603.611,181.641C594.362,175.032 584.494,169.335 574.146,164.63L555.654,185.453C545.433,181.467 534.804,178.62 523.96,176.96L518.356,149.681ZM501.345,289.569C520.76,289.569 536.523,305.332 536.523,324.748C536.523,344.163 520.76,359.926 501.345,359.926C481.93,359.926 466.167,344.163 466.167,324.748C466.167,305.332 481.93,289.569 501.345,289.569Z" style="fill:rgb(82,127,162);"/>
                <path d="M518.356,149.681L523.96,176.96C534.804,178.62 545.433,181.467 555.654,185.453L574.146,164.63C584.494,169.335 594.362,175.032 603.611,181.641L594.824,208.067C603.385,214.926 611.166,222.707 618.025,231.269L644.452,222.482C651.061,231.731 656.758,241.598 661.463,251.946L640.64,270.439C644.625,280.66 647.473,291.289 649.132,302.133L676.412,307.736C677.511,319.05 677.511,330.445 676.412,341.759L649.132,347.362C647.473,358.206 644.625,368.835 640.64,379.056L661.463,397.549C656.758,407.897 651.061,417.764 644.452,427.013L618.025,418.226C611.166,426.788 603.385,434.569 594.824,441.428L603.611,467.854C594.362,474.463 584.494,480.16 574.146,484.865L555.654,464.042C545.433,468.028 534.804,470.875 523.96,472.535L518.356,499.814C507.042,500.914 495.648,500.914 484.334,499.814L478.73,472.535C467.886,470.875 457.257,468.028 447.036,464.042L428.544,484.865C418.196,480.16 408.328,474.463 399.079,467.854L407.866,441.428C399.305,434.569 391.524,426.788 384.665,418.226L358.238,427.013C351.629,417.764 345.932,407.897 341.227,397.549L362.05,379.056C358.065,368.835 355.217,358.206 353.558,347.362L326.278,341.759C325.179,330.445 325.179,319.05 326.278,307.736L353.558,302.133C355.217,291.289 358.065,280.66 362.05,270.439L341.227,251.946C345.932,241.598 351.629,231.731 358.238,222.482L384.665,231.269C391.524,222.707 399.305,214.926 407.866,208.067L399.079,181.641C408.328,175.032 418.196,169.335 428.544,164.63L447.036,185.453C457.257,181.467 467.886,178.62 478.73,176.96L484.334,149.681C495.648,148.581 507.042,148.581 518.356,149.681ZM383.139,324.748C386.856,329.607 389.398,335.408 390.366,341.731C391.612,349.875 393.751,357.857 396.744,365.533C399.067,371.492 399.766,377.787 398.977,383.853C404.625,386.203 409.727,389.956 413.727,394.948C418.877,401.377 424.72,407.22 431.15,412.371C436.141,416.37 439.894,421.471 442.244,427.119C448.31,426.33 454.604,427.03 460.564,429.353C468.239,432.346 476.22,434.484 484.363,435.73C490.686,436.698 496.486,439.239 501.345,442.954C506.204,439.239 512.004,436.698 518.327,435.73C526.47,434.484 534.451,432.346 542.126,429.353C548.086,427.03 554.38,426.33 560.446,427.119C562.796,421.471 566.549,416.37 571.54,412.371C577.97,407.22 583.813,401.377 588.963,394.948C592.963,389.956 598.065,386.203 603.713,383.853C602.924,377.787 603.623,371.492 605.946,365.533C608.939,357.857 611.078,349.875 612.324,341.731C613.292,335.408 615.834,329.607 619.551,324.748C615.834,319.889 613.292,314.087 612.324,307.764C611.078,299.62 608.939,291.638 605.946,283.962C603.623,278.003 602.924,271.708 603.713,265.642C598.065,263.292 592.963,259.539 588.963,254.547C583.813,248.118 577.97,242.275 571.54,237.124C566.549,233.125 562.796,228.024 560.446,222.376C554.38,223.165 548.086,222.465 542.126,220.142C534.451,217.149 526.47,215.011 518.327,213.765C512.004,212.797 506.204,210.256 501.345,206.541C496.486,210.256 490.686,212.797 484.363,213.765C476.22,215.011 468.239,217.149 460.564,220.142C454.604,222.465 448.31,223.165 442.244,222.376C439.894,228.024 436.141,233.125 431.15,237.124C424.72,242.275 418.877,248.118 413.727,254.547C409.727,259.539 404.625,263.292 398.977,265.642C399.766,271.708 399.067,278.003 396.744,283.962C393.751,291.638 391.612,299.62 390.366,307.764C389.398,314.087 386.856,319.889 383.139,324.748Z" style="fill:rgb(82,127,162);"/>
            </g>
            <path d="M252.261,512L212.157,572.16L452.768,572.16L412.47,512" style="fill:none;stroke:rgb(82,127,162);stroke-width:24px;"/>
            <path d="M212.157,572.16L111.919,572.16L111.919,619.955L552.852,619.955L552.852,572.16L452.768,572.16" style="fill:none;stroke:rgb(82,127,162);stroke-width:24px;"/>
        </g>
    </g>
</svg>
