<?xml version="1.0" encoding="UTF-8" standalone="no"?>
<!DOCTYPE svg PUBLIC "-//W3C//DTD SVG 1.1//EN" "http://www.w3.org/Graphics/SVG/1.1/DTD/svg11.dtd">
<svg width="100%" height="100%" viewBox="0 0 317 284" version="1.1" xmlns="http://www.w3.org/2000/svg" xmlns:xlink="http://www.w3.org/1999/xlink" xml:space="preserve" xmlns:serif="http://www.serif.com/" style="fill-rule:evenodd;clip-rule:evenodd;stroke-linecap:round;stroke-linejoin:round;stroke-miterlimit:1.5;">
    <g id="Small-cog" serif:id="Small cog" transform="matrix(0.471973,0,0,0.471973,50.7403,12.8713)">
        <path d="M235.337,143.401C229.83,142.676 224.251,142.676 218.744,143.401C217.74,146.147 217.477,148.963 217.957,151.848C214.431,152.435 210.969,153.362 207.621,154.617C206.594,151.879 204.96,149.572 202.716,147.696C197.584,149.821 192.753,152.611 188.346,155.992C188.849,158.873 190.03,161.442 191.888,163.701C189.127,165.972 186.593,168.507 184.321,171.267C182.063,169.409 179.494,168.229 176.613,167.725C173.231,172.132 170.442,176.964 168.316,182.096C170.192,184.339 172.5,185.974 175.238,187C173.983,190.348 173.055,193.81 172.468,197.337C169.584,196.857 166.768,197.119 164.022,198.123C163.297,203.631 163.297,209.209 164.022,214.717C166.768,215.721 169.584,215.984 172.468,215.503C173.055,219.03 173.983,222.492 175.238,225.84C172.5,226.866 170.192,228.501 168.316,230.745C170.442,235.877 173.231,240.708 176.613,245.115C179.494,244.612 182.063,243.431 184.321,241.573C186.593,244.334 189.127,246.868 191.888,249.14C190.03,251.398 188.849,253.967 188.346,256.848C192.753,260.229 197.584,263.019 202.716,265.145C204.96,263.268 206.594,260.961 207.621,258.223C210.969,259.478 214.431,260.406 217.957,260.993C217.477,263.877 217.74,266.693 218.744,269.439C224.251,270.164 229.83,270.164 235.337,269.439C236.342,266.693 236.604,263.877 236.124,260.993C239.651,260.406 243.113,259.478 246.461,258.223C247.487,260.961 249.122,263.268 251.365,265.145C256.497,263.019 261.328,260.229 265.735,256.848C265.232,253.967 264.052,251.398 262.193,249.14C264.954,246.868 267.488,244.334 269.76,241.573C272.018,243.431 274.588,244.612 277.469,245.115C280.85,240.708 283.64,235.877 285.765,230.745C283.889,228.501 281.582,226.866 278.844,225.84C280.099,222.492 281.026,219.03 281.613,215.503C284.498,215.984 287.314,215.721 290.06,214.717C290.785,209.209 290.785,203.631 290.06,198.123C287.314,197.119 284.498,196.857 281.613,197.337C281.026,193.81 280.099,190.348 278.844,187C281.582,185.974 283.889,184.339 285.765,182.096C283.64,176.964 280.85,172.132 277.469,167.725C274.588,168.229 272.018,169.409 269.76,171.267C267.488,168.507 264.954,165.972 262.193,163.701C264.052,161.442 265.232,158.873 265.735,155.992C261.328,152.611 256.497,149.821 251.365,147.696C249.122,149.572 247.487,151.879 246.461,154.617C243.113,153.362 239.651,152.435 236.124,151.848C236.604,148.963 236.342,146.147 235.337,143.401ZM227.041,185.261C238.719,185.261 248.2,194.742 248.2,206.42C248.2,218.098 238.719,227.579 227.041,227.579C215.363,227.579 205.882,218.098 205.882,206.42C205.882,194.742 215.363,185.261 227.041,185.261Z" style="fill:rgb(82,127,162);stroke:rgb(52,71,86);stroke-width:4.24px;"/>
    </g>
    <g id="Medium-cog" serif:id="Medium cog" transform="matrix(0.774043,0.140113,-0.140113,0.774043,-28.8751,-33.6475)">
        <path d="M235.337,143.401C229.83,142.676 224.251,142.676 218.744,143.401C217.74,146.147 217.477,148.963 217.957,151.848C214.431,152.435 210.969,153.362 207.621,154.617C206.594,151.879 204.96,149.572 202.716,147.696C197.584,149.821 192.753,152.611 188.346,155.992C188.849,158.873 190.03,161.442 191.888,163.701C189.127,165.972 186.593,168.507 184.321,171.267C182.063,169.409 179.494,168.229 176.613,167.725C173.231,172.132 170.442,176.964 168.316,182.096C170.192,184.339 172.5,185.974 175.238,187C173.983,190.348 173.055,193.81 172.468,197.337C169.584,196.857 166.768,197.119 164.022,198.123C163.297,203.631 163.297,209.209 164.022,214.717C166.768,215.721 169.584,215.984 172.468,215.503C173.055,219.03 173.983,222.492 175.238,225.84C172.5,226.866 170.192,228.501 168.316,230.745C170.442,235.877 173.231,240.708 176.613,245.115C179.494,244.612 182.063,243.431 184.321,241.573C186.593,244.334 189.127,246.868 191.888,249.14C190.03,251.398 188.849,253.967 188.346,256.848C192.753,260.229 197.584,263.019 202.716,265.145C204.96,263.268 206.594,260.961 207.621,258.223C210.969,259.478 214.431,260.406 217.957,260.993C217.477,263.877 217.74,266.693 218.744,269.439C224.251,270.164 229.83,270.164 235.337,269.439C236.342,266.693 236.604,263.877 236.124,260.993C239.651,260.406 243.113,259.478 246.461,258.223C247.487,260.961 249.122,263.268 251.365,265.145C256.497,263.019 261.328,260.229 265.735,256.848C265.232,253.967 264.052,251.398 262.193,249.14C264.954,246.868 267.488,244.334 269.76,241.573C272.018,243.431 274.588,244.612 277.469,245.115C280.85,240.708 283.64,235.877 285.765,230.745C283.889,228.501 281.582,226.866 278.844,225.84C280.099,222.492 281.026,219.03 281.613,215.503C284.498,215.984 287.314,215.721 290.06,214.717C290.785,209.209 290.785,203.631 290.06,198.123C287.314,197.119 284.498,196.857 281.613,197.337C281.026,193.81 280.099,190.348 278.844,187C281.582,185.974 283.889,184.339 285.765,182.096C283.64,176.964 280.85,172.132 277.469,167.725C274.588,168.229 272.018,169.409 269.76,171.267C267.488,168.507 264.954,165.972 262.193,163.701C264.052,161.442 265.232,158.873 265.735,155.992C261.328,152.611 256.497,149.821 251.365,147.696C249.122,149.572 247.487,151.879 246.461,154.617C243.113,153.362 239.651,152.435 236.124,151.848C236.604,148.963 236.342,146.147 235.337,143.401ZM227.041,185.261C238.719,185.261 248.2,194.742 248.2,206.42C248.2,218.098 238.719,227.579 227.041,227.579C215.363,227.579 205.882,218.098 205.882,206.42C205.882,194.742 215.363,185.261 227.041,185.261Z" style="fill:rgb(82,127,162);stroke:rgb(52,71,86);stroke-width:2.54px;"/>
    </g>
    <g id="Big-Cog" serif:id="Big Cog" transform="matrix(0.924981,-0.18827,0.18827,0.924981,-45.119,19.6638)">
        <path d="M235.337,143.401C229.83,142.676 224.251,142.676 218.744,143.401C217.74,146.147 217.477,148.963 217.957,151.848C214.431,152.435 210.969,153.362 207.621,154.617C206.594,151.879 204.96,149.572 202.716,147.696C197.584,149.821 192.753,152.611 188.346,155.992C188.849,158.873 190.03,161.442 191.888,163.701C189.127,165.972 186.593,168.507 184.321,171.267C182.063,169.409 179.494,168.229 176.613,167.725C173.231,172.132 170.442,176.964 168.316,182.096C170.192,184.339 172.5,185.974 175.238,187C173.983,190.348 173.055,193.81 172.468,197.337C169.584,196.857 166.768,197.119 164.022,198.123C163.297,203.631 163.297,209.209 164.022,214.717C166.768,215.721 169.584,215.984 172.468,215.503C173.055,219.03 173.983,222.492 175.238,225.84C172.5,226.866 170.192,228.501 168.316,230.745C170.442,235.877 173.231,240.708 176.613,245.115C179.494,244.612 182.063,243.431 184.321,241.573C186.593,244.334 189.127,246.868 191.888,249.14C190.03,251.398 188.849,253.967 188.346,256.848C192.753,260.229 197.584,263.019 202.716,265.145C204.96,263.268 206.594,260.961 207.621,258.223C210.969,259.478 214.431,260.406 217.957,260.993C217.477,263.877 217.74,266.693 218.744,269.439C224.251,270.164 229.83,270.164 235.337,269.439C236.342,266.693 236.604,263.877 236.124,260.993C239.651,260.406 243.113,259.478 246.461,258.223C247.487,260.961 249.122,263.268 251.365,265.145C256.497,263.019 261.328,260.229 265.735,256.848C265.232,253.967 264.052,251.398 262.193,249.14C264.954,246.868 267.488,244.334 269.76,241.573C272.018,243.431 274.588,244.612 277.469,245.115C280.85,240.708 283.64,235.877 285.765,230.745C283.889,228.501 281.582,226.866 278.844,225.84C280.099,222.492 281.026,219.03 281.613,215.503C284.498,215.984 287.314,215.721 290.06,214.717C290.785,209.209 290.785,203.631 290.06,198.123C287.314,197.119 284.498,196.857 281.613,197.337C281.026,193.81 280.099,190.348 278.844,187C281.582,185.974 283.889,184.339 285.765,182.096C283.64,176.964 280.85,172.132 277.469,167.725C274.588,168.229 272.018,169.409 269.76,171.267C267.488,168.507 264.954,165.972 262.193,163.701C264.052,161.442 265.232,158.873 265.735,155.992C261.328,152.611 256.497,149.821 251.365,147.696C249.122,149.572 247.487,151.879 246.461,154.617C243.113,153.362 239.651,152.435 236.124,151.848C236.604,148.963 236.342,146.147 235.337,143.401ZM227.041,185.261C238.719,185.261 248.2,194.742 248.2,206.42C248.2,218.098 238.719,227.579 227.041,227.579C215.363,227.579 205.882,218.098 205.882,206.42C205.882,194.742 215.363,185.261 227.041,185.261Z" style="fill:rgb(82,127,162);stroke:rgb(52,71,86);stroke-width:2.12px;"/>
    </g>
    <g id="Branch-TR" serif:id="Branch TR" transform="matrix(1,0,0,1,-87.4511,-82.136)">
        <g transform="matrix(0.444444,0,0,0.444444,197.931,45.0755)">
            <circle cx="421.219" cy="112.636" r="22.5" style="fill:none;stroke:rgb(71,137,135);stroke-width:13.5px;"/>
        </g>
        <path d="M375.139,90.136L375.139,100.136L316.176,100.136L316.176,180.136L306.176,180.136L306.176,90.136L375.139,90.136Z" style="fill:rgb(71,137,135);"/>
    </g>
    <g id="Branch-TL" serif:id="Branch TL" transform="matrix(1,0,0,1,-85.4435,-79.3393)">
        <path d="M145.03,170.136L205.03,170.136L205.03,180.136L135.03,180.136L135.03,130.136L145.03,130.136L145.03,170.136Z" style="fill:rgb(71,137,135);"/>
        <g transform="matrix(0.444444,0,0,0.444444,-47.1789,70.0755)">
            <circle cx="421.219" cy="112.636" r="22.5" style="fill:none;stroke:rgb(71,137,135);stroke-width:13.5px;"/>
        </g>
    </g>
    <g id="Branch-BL" serif:id="Branch BL" transform="matrix(1,0,0,1,-87.4511,-80.3842)">
        <g transform="matrix(0.444444,0,0,0.444444,-86.7574,271.622)">
            <circle cx="421.219" cy="112.636" r="22.5" style="fill:none;stroke:rgb(71,137,135);stroke-width:13.5px;"/>
        </g>
        <path d="M105.451,230.68L105.451,311.682L95.451,311.682L95.451,220.68L145.451,220.68L145.451,230.68L105.451,230.68Z" style="fill:rgb(71,137,135);"/>
    </g>
    <g id="Branch-BR" serif:id="Branch BR" transform="matrix(1,0,0,1,-87.4511,-80.3842)">
        <path d="M270.709,345.682L380.709,345.682L380.709,355.682L260.709,355.682L260.709,315.682L270.709,315.682L270.709,345.682Z" style="fill:rgb(71,137,135);"/>
        <g transform="matrix(0.444444,0,0,0.444444,203.5,300.622)">
            <circle cx="421.219" cy="112.636" r="22.5" style="fill:none;stroke:rgb(71,137,135);stroke-width:13.5px;"/>
        </g>
    </g>
</svg>
