<?xml version="1.0" encoding="UTF-8" standalone="no"?>
<!DOCTYPE svg PUBLIC "-//W3C//DTD SVG 1.1//EN" "http://www.w3.org/Graphics/SVG/1.1/DTD/svg11.dtd">
<svg width="100%" height="100%" viewBox="0 0 546 672" version="1.1" xmlns="http://www.w3.org/2000/svg" xmlns:xlink="http://www.w3.org/1999/xlink" xml:space="preserve" xmlns:serif="http://www.serif.com/" style="fill-rule:evenodd;clip-rule:evenodd;stroke-linejoin:round;stroke-miterlimit:2;">
    <g id="Shopping-bag" serif:id="Shopping bag" transform="matrix(1,0,0,1,0,-51)">
        <g transform="matrix(1.06148,0,0,1.50433,-36.1644,-75.0818)">
            <path d="M71.641,166.906C71.641,121.046 118.126,83.813 175.383,83.813C232.639,83.813 279.124,121.046 279.124,166.906L71.641,166.906ZM87.666,156.27L263.099,156.27C256.835,121.559 220.375,94.449 175.383,94.449C130.39,94.449 93.931,121.559 87.666,156.27Z" style="fill:rgb(82,127,162);"/>
        </g>
        <path d="M87.312,500L0,500L0,160L300,160L300,323.186C277.12,307.945 249.65,299.059 220.122,299.059C140.456,299.059 75.777,363.738 75.777,443.404C75.777,463.487 79.887,482.618 87.312,500ZM64.972,484C61.583,471.032 59.777,457.427 59.777,443.404C59.777,354.907 131.625,283.059 220.122,283.059C242.82,283.059 264.423,287.787 284,296.308L284,176L16,176L16,484L64.972,484Z" style="fill:rgb(82,127,162);"/>
    </g>
    <g id="Magnifier" transform="matrix(1,0,0,1,54.0931,226.375)">
        <path d="M279.702,286.997C249.987,314.934 209.992,332.058 166.029,332.058C74.395,332.058 0,257.663 0,166.029C0,74.395 74.395,0 166.029,0C257.663,0 332.058,74.395 332.058,166.029C332.058,200.578 321.482,232.676 303.395,259.26C305.997,260.016 308.485,261.316 310.688,263.174L484.712,409.965C493.15,417.082 494.222,429.711 487.105,438.148C479.988,446.586 467.359,447.658 458.922,440.541L284.897,293.75C282.627,291.835 280.89,289.521 279.702,286.997ZM166.029,21.684C86.363,21.684 21.684,86.363 21.684,166.029C21.684,245.695 86.363,310.374 166.029,310.374C245.695,310.374 310.374,245.695 310.374,166.029C310.374,86.363 245.695,21.684 166.029,21.684Z" style="fill:rgb(82,127,162);"/>
    </g>
    <g id="Info" transform="matrix(0.748547,0,0,0.748547,108.794,281)">
        <g transform="matrix(1.79268,0,0,1.79268,-169.436,-135.366)">
            <circle cx="178.189" cy="159.184" r="83.673" style="fill:rgb(71,137,135);"/>
        </g>
        <g transform="matrix(1,0,0,1,0,30.0328)">
            <path d="M135.067,103.579L135,103.639C134.602,93.979 114.777,117.344 114.777,117.344L105.373,117.344C120.261,90.207 144.59,89.777 149.224,89.954C149.729,89.973 150,90 150,90C158.257,90 164.965,96.686 165,104.934L165,195C164.998,195.457 164.975,195.909 164.933,196.355L165,196.295C165.398,205.955 185.223,182.59 185.223,182.59L194.627,182.59C179.739,209.728 155.41,210.158 150.776,209.98C150.271,209.961 150,209.934 150,209.934C141.743,209.934 135.035,203.249 135,195L135,104.934C135.002,104.478 135.025,104.025 135.067,103.579Z" style="fill:white;"/>
        </g>
        <g transform="matrix(1,0,0,1,0,15.5795)">
            <circle cx="150" cy="59.388" r="15" style="fill:white;"/>
        </g>
    </g>
</svg>
